<svg xmlns="http://www.w3.org/2000/svg" width="771" height="351" viewBox="0 0 771 351">
  <g fill="#B31617">
    <path d="M627.731,90.893 L627.731,56.471 C627.731,42.806 618.895,34.339 602.203,37.282 C585.511,40.225 576.673,51.808 576.673,65.474 L576.673,99.896 C576.673,113.564 585.511,122.028 602.203,119.084 C618.895,116.141 627.731,104.561 627.731,90.893 Z M602.005,53.719 L602.398,53.65 C607.014,52.837 609.468,55.44 609.468,59.691 L609.468,94.113 C609.468,98.365 607.014,101.836 602.398,102.65 L602.005,102.719 C597.391,103.533 594.936,100.928 594.936,96.676 L594.936,62.253 C594.936,58.002 597.391,54.533 602.005,53.719 Z M542.614,112.461 L535.74,113.774 L552.726,91.341 C558.127,84.211 561.269,79.002 561.269,69.383 L561.269,67.358 C561.269,57.638 555.279,46.242 535.74,49.687 C518.46,52.735 510.212,62.692 510.212,80.005 L510.212,81.928 L528.474,78.708 C528.474,70.103 531.42,66.851 535.249,66.176 L536.231,66.004 C540.06,65.328 543.006,67.641 543.006,74.121 L543.006,75.134 C543.006,79.083 541.435,81.485 538.686,85.009 L510.212,122.728 L510.212,134.575 L561.269,125.571 L561.269,109.171 L542.614,112.461 Z M33.972,143.678 L33.972,181.238 L82.613,172.661 L82.613,135.101 L33.972,143.678 Z M331.699,94.164 L331.699,170.994 L380.341,162.417 L380.341,85.587 L331.699,94.164 Z M769.173,106.713 L680.6,0.512 C680.45,0.335 680.294,0.165 680.131,0 C681.053,1.362 681.608,3.047 681.608,4.974 L681.608,224.047 C681.608,229.538 677.289,234.752 671.963,235.691 L459.618,273.133 C454.293,274.072 449.975,270.381 449.975,264.89 L449.975,85.851 C449.975,85.732 449.924,85.619 449.833,85.542 L411.017,52.475 C410.823,52.309 410.582,52.2 410.378,52.045 C412.249,53.787 413.82,55.888 415.012,58.453 C416.322,61.283 416.976,64.402 416.976,67.817 L416.976,167.268 C416.976,170.682 416.322,174.037 415.012,177.325 C413.697,180.618 411.973,183.59 409.837,186.242 C407.695,188.897 405.143,191.123 402.179,192.926 C399.209,194.731 396.074,195.925 392.761,196.509 L319.489,209.429 C316.175,210.013 313.036,209.925 310.07,209.168 C307.102,208.411 304.516,207.09 302.309,205.202 C300.1,203.316 298.377,200.952 297.134,198.111 C295.893,195.272 295.272,192.143 295.272,188.728 L295.272,97.002 C295.272,96.627 295.094,96.275 294.791,96.053 L262.477,72.484 C262.195,72.243 261.869,72.108 261.538,71.989 C262.007,72.574 262.273,73.292 262.273,74.18 L262.273,102.35 C262.273,103.49 261.891,104.518 261.133,105.432 C260.373,106.35 259.442,106.905 258.339,107.099 L228.948,112.281 C227.85,112.475 226.924,112.99 226.171,113.823 C225.406,114.668 225.015,115.79 225.015,116.93 L225.015,222.031 C225.015,223.173 224.669,224.193 223.981,225.094 C223.288,226 222.392,226.549 221.291,226.743 L192.518,231.816 C191.413,232.011 190.483,231.784 189.725,231.135 C188.965,230.489 188.587,229.596 188.587,228.454 L188.587,123.239 C188.587,122.103 188.24,121.24 187.552,120.647 C186.859,120.059 185.964,119.861 184.861,120.055 L155.47,125.238 C154.365,125.432 153.431,125.206 152.675,124.556 C151.915,123.911 151.537,123.016 151.537,121.876 L151.537,128.515 L111.39,103.211 L111.384,103.214 C111.633,103.385 111.878,103.562 112.107,103.758 C114.245,105.588 115.968,107.913 117.281,110.74 C118.591,113.571 119.249,116.689 119.249,120.105 L119.249,240.471 C119.249,241.613 118.867,242.639 118.109,243.552 C117.349,244.471 116.419,245.026 115.316,245.22 L86.546,250.293 C85.438,250.488 84.507,250.262 83.751,249.611 C82.991,248.966 82.613,248.073 82.613,246.931 L82.613,208.73 C82.613,207.592 82.267,206.694 81.576,206.032 C80.885,205.372 79.989,205.137 78.887,205.331 L37.904,212.558 C36.798,212.754 35.867,213.31 35.11,214.225 C34.35,215.143 33.973,216.169 33.973,217.307 L33.973,255.507 C33.973,258.213 32.658,259.795 30.04,260.257 L1.477,265.292 C0.914,265.392 0.442,265.382 0.002,265.336 C0.181,265.531 0.392,265.687 0.629,265.812 L0.617,265.813 L0.677,265.841 C0.698,265.852 0.719,265.861 0.74,265.871 L163.63,343.145 L163.63,343.143 C164.165,343.402 164.855,343.474 165.734,343.319 L191.149,338.838 C193.479,338.427 194.65,337.02 194.65,334.613 L194.65,306.604 C194.848,306.742 239.457,329.719 239.457,329.719 C240.025,330.018 240.681,330.104 241.429,329.973 L267.028,325.458 C268.009,325.285 268.837,324.792 269.513,323.975 C270.187,323.163 270.527,322.25 270.527,321.233 L270.527,277.236 L333.7,313.249 L333.705,313.243 C334.284,313.566 334.954,313.667 335.722,313.532 L361.324,309.018 C362.404,308.828 363.261,308.254 363.899,307.295 C364.401,306.54 364.639,305.637 364.639,304.731 L364.639,245.508 L436.463,291.808 C437.655,292.47 438.922,293.023 440.32,293.38 C442.959,294.054 445.752,294.132 448.7,293.612 L478.003,288.445 C478.279,288.662 567.922,349.231 567.922,349.231 C567.925,349.234 567.928,349.236 567.928,349.236 L567.954,349.253 C569.433,350.24 571.325,350.659 573.387,350.296 L762.33,316.979 C767.069,316.144 770.912,311.505 770.912,306.618 L770.912,111.689 C770.912,109.699 770.251,107.998 769.171,106.715 L769.173,106.713 Z"/>
    <path d="M600.797,220.328 C617.488,217.385 626.324,205.804 626.324,192.136 L626.324,157.715 C626.324,144.049 617.488,135.582 600.797,138.526 C584.105,141.469 575.267,153.051 575.267,166.717 L575.267,201.139 C575.267,214.807 584.105,223.271 600.797,220.328 L600.797,220.328 Z M593.53,163.496 C593.53,159.245 595.985,155.776 600.599,154.963 L600.992,154.893 C605.608,154.08 608.062,156.683 608.062,160.934 L608.062,195.357 C608.062,199.608 605.608,203.08 600.992,203.894 L600.599,203.962 C595.985,204.776 593.53,202.171 593.53,197.919 L593.53,163.496 L593.53,163.496 Z M559.863,210.415 L541.207,213.704 L534.334,215.017 L551.32,192.584 C556.721,185.454 559.863,180.245 559.863,170.626 L559.863,168.601 C559.863,158.882 553.872,147.486 534.334,150.931 C517.053,153.978 508.806,163.936 508.806,181.248 L508.806,183.172 L527.068,179.951 C527.068,171.346 530.014,168.095 533.843,167.42 L534.825,167.247 C538.653,166.571 541.6,168.885 541.6,175.364 L541.6,176.378 C541.6,180.326 540.028,182.729 537.279,186.252 L508.806,223.971 L508.806,235.818 L559.863,226.815 L559.863,210.415 L559.863,210.415 Z"/>
  </g>
</svg>
