<?xml version="1.0" encoding="UTF-8"?>
<svg width="27px" height="27px" viewBox="0 0 27 27" version="1.1" xmlns="http://www.w3.org/2000/svg" xmlns:xlink="http://www.w3.org/1999/xlink">
    <!-- Generator: Sketch 62 (91390) - https://sketch.com -->
    <title>noun_Close_856720</title>
    <desc>Created with Sketch.</desc>
    <g id="Page-1" stroke="none" stroke-width="1" fill="none" fill-rule="evenodd">
        <g id="Artboard" transform="translate(-845.000000, -626.000000)" fill="#000000" fill-rule="nonzero">
            <g id="noun_Close_856720" transform="translate(845.000000, 626.000000)">
                <g id="Group">
                    <g id="Path">
                        <path d="M16.277487,13.036268 L26.274287,3.040535 C26.974021,2.340801 26.969754,1.219735 26.274287,0.523201 C25.577754,-0.176532 24.456687,-0.167999 23.761221,0.523201 L13.765487,10.518935 L3.769754,0.523201 C3.070021,-0.176532 1.948954,-0.172265 1.256687,0.523201 C0.556954,1.224001 0.561221,2.344001 1.256687,3.040535 L11.253487,13.036268 L1.256687,23.027735 C0.556954,23.727468 0.561221,24.848535 1.256687,25.544001 C1.953221,26.244801 3.074287,26.240535 3.769754,25.544001 L13.765487,15.548268 L23.761221,25.544001 C24.460954,26.244801 25.582021,26.240535 26.274287,25.544001 C26.974021,24.844268 26.969754,23.723201 26.274287,23.027735 L16.277487,13.036268 Z"></path>
                    </g>
                </g>
            </g>
        </g>
    </g>
</svg>