<svg xmlns="http://www.w3.org/2000/svg" viewBox="0 0 341.74 332.09"><path id="layer-1" class="line-1 layer-line" d="M178.05,329q-6.37,0-12.8-.48a165.25,165.25,0,0,1-92.89-37C19.26,248-1.23,172.58,22.54,108.2S108.47.3,177.2,0h.05a178.36,178.36,0,0,1,25.94,2.08C269.5,12.25,325.12,65.4,338.47,131.33a166.37,166.37,0,0,1-75.9,174.12A161.92,161.92,0,0,1,178.05,329Zm-.83-318A155.3,155.3,0,0,0,32.86,112C10.69,172.07,29.8,242.39,79.34,283a154.21,154.21,0,0,0,86.73,34.51A151.67,151.67,0,0,0,317.73,225.9a154,154,0,0,0,10-92.39C315.24,72,263.36,22.44,201.52,13A165.69,165.69,0,0,0,177.22,11Z" style="fill:#d92585"></path><path id="layer-2" class="line-2 layer-line" d="M166.14,331.1q-6.4,0-12.86-.48a166,166,0,0,1-93.35-37.16C6.56,249.7-14,173.94,9.86,109.24S96.22.8,165.29.5h0a177.54,177.54,0,0,1,26.08,2.1C258,12.81,313.94,66.22,327.35,132.48a167.12,167.12,0,0,1-76.28,175A162.53,162.53,0,0,1,166.14,331.1Zm-.83-320.6C100.4,10.79,41.7,51.86,19.24,112.7s-3.09,131.92,47,173A156,156,0,0,0,154,320.64a153.45,153.45,0,0,0,153.45-92.7,155.8,155.8,0,0,0,10.07-93.48C305,72.24,252.46,22.08,189.89,12.48A168.23,168.23,0,0,0,165.31,10.5Z" style="fill:#75f272"></path><path id="layer-3" class="line-3 layer-line" d="M172,332.09c-4.27,0-8.57-.16-12.87-.48a166.22,166.22,0,0,1-93.44-37.19C12.3,250.61-8.31,174.77,15.6,110S102,1.46,171.17,1.15h.06a178.94,178.94,0,0,1,26.09,2.1C264,13.48,320,67,333.42,133.27a167.34,167.34,0,0,1-76.36,175.16A162.83,162.83,0,0,1,172,332.09ZM171.2,14.15A154.28,154.28,0,0,0,27.79,114.5C5.77,174.16,24.76,244,74,284.37a153.29,153.29,0,0,0,86.17,34.28,150.68,150.68,0,0,0,150.65-91,153,153,0,0,0,9.89-91.79C308.31,74.76,256.77,25.52,195.35,16.1A165,165,0,0,0,171.2,14.15Z" style="fill:#2d2d2d"></path><path d="M171.8,272.18H179V257.92h14.2V243.76h14.25V229.45h14.21V215.23H236V201h14.15V186.77h14.31V172.46h14.12V116.18h-14.2V101.9H250.05v-14H194V102H179.64v14.07H171.8" style="fill:#c92c32"></path><path id="heart" class="heart-item" d="M171.8,116.11h-6.32V102H151.15V87.9H93.44V102H79.2v14.22H65v56.37H79.29v14.23H93.45v14.23h14.3v14.24H122v14.3H136.2v14.24h14.3v14.22h14.23v14.11h7.07" style="fill:#f0353b"></path><path d="M218.15,146.76v10.52h12.73V123.7h7.31v40.53H210.36V146.76Z" style="fill:#fff"></path><path d="M243.84,147.26V123.7h27.83v6.94h-20v10h20v23.57H243.84v-6.95h20.52v-10Z" style="fill:#fff"></path><path id="heart" class="heart-item" d="M178.58,272.18h7.21V257.92H200V243.76h14.25V229.45h14.2V215.23h14.32V201h14.15V186.77h14.31V172.46h14.11V116.18H271.15V101.9H256.82v-14H200.73V102H186.41v14.07h-7.83" style="fill:#d92585"></path><path id="heart" class="heart-item" d="M171,272.18h7.22V257.92h14.2V243.76h14.25V229.45h14.21V215.23h14.31V201h14.15V186.77h14.31V172.46h14.12V116.18h-14.2V101.9H249.22v-14H193.13V102H178.81v14.07H171" style="fill:#75f272"></path><path id="heart" class="heart-item" d="M171,116.11h-6.32V102H150.32V87.9H92.61V102H78.37v14.22H64.21v56.37H78.46v14.23H92.62v14.23h14.3v14.24h14.23v14.3h14.22v14.24h14.3v14.22H163.9v14.11H171" style="fill:#75f272"></path><path id="heart" class="heart-item" d="M267.52,116.18V101.9H253.19v-14H197.1V102H182.79v14.07H170V272.18h12.21V257.92h14.21V243.76h14.25V229.45h14.21V215.23h14.31V201h14.15V186.77H267.6V172.46h14.12V116.18Z" style="fill:#c92c32"></path><path id="heart" class="heart-item" d="M175,116.11h-6.33V102H154.3V87.9H96.59V102H82.35v14.22H68.19v56.37H82.44v14.23H96.6v14.23h14.3v14.24h14.23v14.3h14.22v14.24h14.3v14.22h14.23v14.11H175V116.11Z" style="fill:#f0353b"></path><path id="heart" class="heart-item" d="M220.47,146.76v10.52H233.2V123.7h7.31v40.53H212.68V146.76Z" style="fill:#fff"></path><path id="heart" class="heart-item" d="M246.15,147.26V123.7H274v6.94h-20v10h20v23.57H246.15v-6.95h20.52v-10Z" style="fill:#fff"></path></svg>