<?xml version="1.0" encoding="UTF-8"?>
<svg width="30px" height="35px" viewBox="0 0 30 35" version="1.1" xmlns="http://www.w3.org/2000/svg" xmlns:xlink="http://www.w3.org/1999/xlink">
    <!-- Generator: Sketch 52.6 (67491) - http://www.bohemiancoding.com/sketch -->
    <title>logo-graphql</title>
    <desc>Created with Sketch.</desc>
    <g id="landingpages" stroke="none" stroke-width="1" fill="none" fill-rule="evenodd">
        <g id="GraphQL-day-overview02" transform="translate(-152.000000, -1894.000000)" fill-rule="nonzero">
            <g id="footer" transform="translate(0.000000, 1860.000000)">
                <g id="logo-graphql" transform="translate(152.000000, 34.000000)">
                    <g id="Layer_1">
                        <g id="Group">
                            <circle id="Oval" fill="#D6D6D6" cx="2" cy="10" r="2"></circle>
                            <circle id="Oval" fill="#D6D6D6" cx="2" cy="25" r="2"></circle>
                            <circle id="Oval" fill="#D6D6D6" cx="15" cy="33" r="2"></circle>
                            <circle id="Oval" fill="#D6D6D6" cx="15" cy="2" r="2"></circle>
                            <circle id="Oval" fill="#D6D6D6" cx="28" cy="10" r="2"></circle>
                            <circle id="Oval" fill="#D6D6D6" cx="28" cy="25" r="2"></circle>
                            <path d="M2,22 C1.44516129,22 1,21.5988372 1,21.0988372 L1,13.9011628 C1,13.4011628 1.44516129,13 2,13 C2.55483871,13 3,13.4011628 3,13.9011628 L3,21.0930233 C3,21.5930233 2.55483871,22 2,22 Z" id="Shape" fill="#D6D6D6"></path>
                            <path d="M11.1816677,32 C11.0450891,32 10.9032575,31.9611449 10.777185,31.8834348 L5.4085966,28.6085067 C5.01987297,28.3698255 4.8832944,27.8425066 5.10917435,27.4317529 C5.33505429,27.0209992 5.83409137,26.8766804 6.222815,27.1153616 L11.5914034,30.3902896 C11.980127,30.6289708 12.1167056,31.1562897 11.8908257,31.5670434 C11.733235,31.8445797 11.4600779,32 11.1816677,32 Z" id="Shape" fill="#D6D6D6"></path>
                            <path d="M18.8130793,32 C18.5294161,32 18.256259,31.8445797 18.1091743,31.5670434 C17.8832944,31.1562897 18.019873,30.6289708 18.4085966,30.3902896 L23.777185,27.1153616 C24.1659086,26.8766804 24.6649457,27.0209992 24.8908257,27.4317529 C25.1167056,27.8425066 24.980127,28.3698255 24.5914034,28.6085067 L19.222815,31.8834348 C19.0914894,31.9611449 18.9549109,32 18.8130793,32 Z" id="Shape" fill="#D6D6D6"></path>
                            <path d="M28,22 C27.4451613,22 27,21.5988372 27,21.0988372 L27,13.9011628 C27,13.4011628 27.4451613,13 28,13 C28.5548387,13 29,13.4011628 29,13.9011628 L29,21.0930233 C29,21.5930233 28.5483871,22 28,22 Z" id="Shape" fill="#D6D6D6"></path>
                            <path d="M24.1816677,8 C24.0450891,8 23.9032575,7.96114492 23.777185,7.88343476 L18.4085966,4.60850672 C18.019873,4.36982553 17.8832944,3.84250661 18.1091743,3.43175292 C18.3350543,3.02099923 18.8340914,2.87668037 19.222815,3.11536157 L24.5914034,6.39028961 C24.980127,6.6289708 25.1167056,7.15628972 24.8908257,7.56704341 C24.738488,7.84457969 24.4653309,8 24.1816677,8 Z" id="Shape" fill="#D6D6D6"></path>
                            <path d="M5.81307929,8 C5.5294161,8 5.25625896,7.84457969 5.10917435,7.56704341 C4.8832944,7.15628972 5.01987297,6.6289708 5.4085966,6.39028961 L10.777185,3.11536157 C11.1659086,2.87668037 11.6649457,3.02099923 11.8908257,3.43175292 C12.1167056,3.84250661 11.980127,4.36982553 11.5914034,4.60850672 L6.222815,7.88343476 C6.09148945,7.96669565 5.94965786,8 5.81307929,8 Z" id="Shape" fill="#D6D6D6"></path>
                            <path d="M22.15,25 L6.85,25 C6.3783871,25 6,24.5548387 6,24 C6,23.4451613 6.3783871,23 6.85,23 L22.15,23 C22.6216129,23 23,23.4451613 23,24 C23,24.5548387 22.6216129,25 22.15,25 Z" id="Shape" fill="#F56199"></path>
                            <path d="M5.82743896,22 C5.6884483,22 5.54411184,21.9609489 5.41581276,21.8828466 C5.02022395,21.6429612 4.88123328,21.1129816 5.11110246,20.7001555 L12.4508787,7.43393134 C12.6807479,7.02110518 13.1885984,6.87605816 13.5841872,7.11594362 C13.9797761,7.35582909 14.1187667,7.88580861 13.8888975,8.29863476 L6.54377547,21.5648589 C6.39409321,21.8437955 6.11611188,22 5.82743896,22 Z" id="Shape" fill="#FA8D22"></path>
                            <path d="M24.1696812,21 C23.8818631,21 23.6047049,20.8442011 23.4554658,20.5659888 L16.1107735,7.29526266 C15.881585,6.88350848 16.0201641,6.35490513 16.4145815,6.11564256 C16.8089989,5.87637999 17.3153457,6.02105038 17.5445342,6.43280457 L24.8892265,19.709095 C25.118415,20.1208492 24.9798359,20.6494525 24.5854185,20.8887151 C24.4521694,20.9610503 24.3135903,21 24.1696812,21 Z" id="Shape" fill="#6C33E2"></path>
                        </g>
                    </g>
                </g>
            </g>
        </g>
    </g>
</svg>