<?xml version="1.0" encoding="utf-8"?>
<!-- Generator: Adobe Illustrator 23.0.2, SVG Export Plug-In . SVG Version: 6.00 Build 0)  -->
<svg version="1.1" id="Layer_1" xmlns="http://www.w3.org/2000/svg" xmlns:xlink="http://www.w3.org/1999/xlink" x="0px" y="0px"
	 viewBox="0 0 302.82 143.7" style="enable-background:new 0 0 302.82 143.7;" xml:space="preserve">
<style type="text/css">
	.st0{fill:#F05657;}
	.st1{fill:#3D292B;}
</style>
<g>
	<g>
		<path class="st0" d="M71.12,40.34c-4.37,13.55-11.77,25.18-22.24,34.89c-0.85,2.07-1.4,3.61-1.69,4.66
			c-0.29,1.05-0.44,1.63-0.44,1.78c0,0.15,0.09,0.41,0.23,0.79c1.31,0,3.23-0.67,5.77-1.98s5.42-3,8.66-5.04
			c3.23-2.04,5.07-3.21,5.54-3.5c0.26-0.2,0.61-0.03,1.02,0.52c0.41,0.55,0.47,0.93,0.2,1.14c-4.4,3.35-8.63,6.21-12.68,8.6
			c-4.05,2.39-6.76,3.41-8.13,3.09c-2.36-0.55-3.38-2.3-3.09-5.25c0.12-1.31,0.82-3.47,2.07-6.47c0.09-0.15,0.32-0.73,0.73-1.75
			c0.32-0.73,0.79-1.72,1.43-3c0.64-1.28,1.08-2.19,1.31-2.68c4.93-10.17,8.77-17.49,11.54-21.92c0.09-0.09,0.29-0.41,0.61-0.96
			s0.67-1.14,1.05-1.75s0.85-1.31,1.37-2.1c0.52-0.79,1.05-1.49,1.54-2.13c0.5-0.64,0.99-1.25,1.46-1.84
			c0.47-0.58,0.93-1.02,1.37-1.31c0.44-0.29,0.79-0.41,1.05-0.32c1.14,0.32,1.78,1.2,1.92,2.62c0.15,1.43-0.03,2.65-0.52,3.67
			L71.12,40.34z M59.37,54.07c-2.27,3.99-4.84,8.8-7.69,14.43c3.41-4.23,6.7-8.98,9.88-14.22c3.18-5.25,5.62-10.38,7.34-15.36
			c0.09-0.12,0.2-0.41,0.35-0.9c-0.52,0.52-1.43,1.75-2.74,3.64c-0.5,0.67-1.19,1.81-2.13,3.41c-0.93,1.6-1.95,3.41-3.06,5.42
			l-1.95,3.53V54.07z"/>
		<path class="st0" d="M84,71.61c0.15-0.09,0.35,0.03,0.58,0.35c0.23,0.32,0.38,0.67,0.41,1.05s-0.06,0.67-0.26,0.87
			c-0.23,0.15-0.7,0.5-1.37,1.05c-0.67,0.55-1.25,1.02-1.75,1.4c-0.5,0.38-1.11,0.82-1.87,1.28c-0.76,0.47-1.43,0.82-2.01,1.02
			s-1.19,0.29-1.87,0.26c-0.67-0.03-1.25-0.2-1.75-0.55c-0.87-0.67-1.46-1.51-1.72-2.51l-0.55,0.38L71.3,76.6
			c-0.09,0.03-0.35,0.2-0.82,0.52s-0.82,0.58-1.08,0.76s-0.67,0.41-1.22,0.73s-0.99,0.52-1.28,0.61c-0.29,0.09-0.7,0.17-1.19,0.26
			c-0.5,0.09-0.82,0.03-0.96-0.2c-2.62-1.6-2.59-3.67,0.09-6.21c2.68-2.54,5.19-3.96,7.49-4.25c0.38-0.03,0.79,0.38,1.19,1.25
			c0.32,0.64,0.35,0.99,0.09,1.02c-2.24,0.26-4.6,1.81-7.08,4.61c0.12-0.03,0.26-0.09,0.44-0.17c2.91-1.6,5.19-3,6.79-4.2
			c0.87-0.99,1.81-1.69,2.8-2.07c0.26-0.15,0.61,0.09,1.05,0.7c0.44,0.61,0.52,1.02,0.26,1.25c-0.85,0.84-1.72,1.66-2.62,2.45
			c-0.44,0.61-0.73,1.22-0.87,1.84c-0.23,0.87,0.32,1.05,1.66,0.52c0.2-0.03,0.79-0.26,1.75-0.7c0.76-0.38,2.86-1.63,6.32-3.76
			L84,71.61z"/>
		<path class="st0" d="M116.47,32.79c0.5-0.23,1.02,0.09,1.57,0.96c0.55,0.88,0.76,1.52,0.61,1.89c-0.26,0.61-0.55,1.2-0.87,1.78
			c-0.32,0.58-0.58,1.08-0.79,1.49s-0.52,0.9-0.93,1.49s-0.7,0.99-0.87,1.22c-0.17,0.23-0.5,0.67-0.99,1.34l-0.9,1.22
			c-0.79,1.08-1.31,1.75-1.54,2.04c-0.64,1.31-3.15,5.89-7.52,13.7s-6.82,12.24-7.34,13.26c-2.74,5.45-4.52,9.33-5.36,11.63
			c-0.55,1.43-1.11,2.94-1.63,4.55c-0.55,1.98-0.76,3.35-0.61,4.14c0,0.09,0.03,0.17,0.09,0.29l0.15,0.29
			c0.09,0.2,0.15,0.35,0.17,0.44c0.03,0.09,0.06,0.2,0.09,0.35s0,0.2-0.09,0.2h-0.44c-0.76-0.15-1.49-1.08-2.16-2.8
			c-0.32-1.08-0.35-2.27-0.09-3.58c0.87-3.99,2.65-8.6,5.3-13.81c0.03-0.15,0.12-0.32,0.23-0.5c-2.01,2.24-3.79,4.11-5.3,5.6
			c-0.38,0.38-0.67,0.64-0.87,0.82c-0.2,0.17-0.52,0.44-0.96,0.79c-0.44,0.35-0.82,0.55-1.11,0.64c-0.29,0.09-0.64,0.12-1.05,0.09
			s-0.79-0.17-1.14-0.47c-2.65-1.95-2.36-5.04,0.9-9.3c0.5-0.64,0.87-1.14,1.14-1.49c0.26-0.35,0.73-0.87,1.37-1.57
			c0.64-0.7,1.22-1.22,1.72-1.6c0.5-0.38,1.05-0.73,1.69-1.08s1.28-0.5,1.89-0.47c0.61,0.03,1.19,0.26,1.75,0.7
			c0.23,0.23,0.47,0.58,0.67,1.05c1.75-2.07,3.03-3.64,3.88-4.72c0.32-0.44,2.39-3.79,6.24-10.03c3.85-6.24,5.89-9.53,6.12-9.88
			c0.09-0.12,0.2-0.32,0.35-0.61c0.15-0.29,0.26-0.52,0.35-0.67c0.2-0.38,0.58-1.19,1.17-2.45c0.58-1.25,1.08-2.27,1.49-3.06
			c0.41-0.79,0.96-1.6,1.69-2.45c0.73-0.84,1.46-1.43,2.21-1.75L116.47,32.79z M92.6,68.84c-1.63-0.35-4.02,1.54-7.17,5.71
			c-0.12,0.15-0.2,0.26-0.23,0.35c-1.28,1.84-2.1,3.18-2.45,4.02c0.23-0.12,0.44-0.26,0.58-0.41c0.58-0.5,1.14-0.99,1.66-1.51
			C87.36,74.64,89.89,71.93,92.6,68.84z"/>
		<path class="st0" d="M117.73,71.79c0.2-0.12,0.47-0.03,0.82,0.26c0.35,0.29,0.61,0.61,0.79,0.96s0.17,0.55,0.03,0.64
			c-4.58,2.59-8.92,5.54-13,8.83c-1.72,3.64-3.32,6.97-4.84,9.97c-1.52,3-3.32,6.38-5.42,10.14c-2.1,3.76-3.99,6.5-5.68,8.22
			c-1.69,1.72-3,2.13-3.91,1.22c-1.08-1.08-0.9-3.58,0.52-7.52c1.43-3.93,3.79-8.25,7.08-12.94c3.29-4.69,6.73-8.42,10.35-11.19
			c1.19-2.54,1.92-4.05,2.19-4.52c-1.37,0.87-2.59,1.22-3.67,1.02c-0.67-0.12-1.31-0.52-1.89-1.22s-0.85-1.4-0.82-2.13
			c0.03-1.22,0.64-2.86,1.81-4.9c1.17-2.04,2.24-2.45,3.24-1.19c0.35,0.5,0.52,0.93,0.52,1.31c0,0.15-0.15,0.12-0.41-0.09
			l-1.37,2.62c-0.79,1.6-0.96,2.39-0.52,2.36c0.35-0.03,1.05-0.5,2.1-1.37c0.35-0.26,0.7-0.58,1.05-0.93s0.7-0.73,1.08-1.17
			s0.67-0.79,0.87-1.02c0.2-0.23,0.52-0.64,0.96-1.22c0.44-0.58,0.73-0.96,0.85-1.14c0.12-0.17,0.35-0.09,0.7,0.23
			s0.67,0.7,0.93,1.17c0.26,0.47,0.35,0.79,0.26,0.99c-0.44,0.99-1.69,3.82-3.76,8.48c0.87-0.64,2.42-1.69,4.63-3.15
			s3.73-2.42,4.58-2.86L117.73,71.79z M89.34,107.31c0.9-1.02,2.39-3.26,4.43-6.7s3.85-6.64,5.45-9.62s2.33-4.34,2.19-4.14
			c-6.21,7.52-10.2,13.67-11.98,18.48c-0.55,1.54-0.64,2.27-0.26,2.16c0.09,0,0.17-0.06,0.26-0.17H89.34z"/>
		<path class="st0" d="M145.91,30.9c0.96,1.28,1.11,2.97,0.44,5.07c-1.14,3.26-3.56,7.66-7.26,13.2
			c-3.7,5.54-7.31,10.49-10.84,14.86c-3.53,4.37-6.03,7.11-7.52,8.22c-1.75,3.5-2.97,6.41-3.7,8.77l1.25-0.84
			c0.79-0.55,1.57-1.17,2.36-1.81c0.79-0.64,1.6-1.52,2.42-2.62c0.82-1.11,1.34-2.24,1.57-3.38c-0.15-0.32-0.35-0.87-0.58-1.69
			c-0.23-0.82-0.2-1.28,0.09-1.43c0-0.09,0.06-0.12,0.17-0.12c0.2-0.03,0.38-0.06,0.55-0.06s0.5,0.03,0.96,0.09
			c0.47,0.06,0.79,0.26,0.99,0.61s0.44,0.85,0.67,1.52c0.23,0.67,0.2,1.57-0.09,2.71c0.61,0.61,1.17,0.93,1.66,0.96
			c0.9,0.03,3.12-0.93,6.62-2.92l0.79-0.44c0.2-0.12,0.47,0.03,0.82,0.44s0.5,0.7,0.41,0.9c-0.5,0.96-1.28,1.87-2.39,2.71
			c-1.11,0.84-2.19,1.4-3.26,1.66c-0.85,0.35-1.69,0.44-2.56,0.26c-0.87-0.17-1.69-0.79-2.45-1.81c-0.5,1.4-1.22,2.68-2.21,3.85
			c-0.99,1.17-2.71,2.59-5.13,4.25c-0.76,0.52-1.31,0.9-1.69,1.11s-0.85,0.38-1.4,0.52s-1.02,0.03-1.4-0.32s-0.73-0.96-1.05-1.81
			c-0.38-1.11-0.15-2.97,0.73-5.57s1.78-4.84,2.74-6.73c0.96-1.89,1.52-2.91,1.63-3.06c8.13-14.89,13.23-23.87,15.33-26.93
			c0.38-0.64,1.08-1.57,2.07-2.77c0.99-1.2,2.13-2.51,3.41-3.96s2.51-2.56,3.64-3.32c1.14-0.76,1.92-0.84,2.36-0.23L145.91,30.9z
			 M143.17,35.44c-1.28,1.52-2.89,3.67-4.78,6.5c-1.89,2.83-3.56,5.42-4.98,7.78c-1.43,2.36-2.91,4.87-4.49,7.52
			c-1.57,2.65-2.45,4.08-2.59,4.31c2.86-3.5,6.15-8.01,9.85-13.55c3.7-5.54,6.06-9.73,7.05-12.59L143.17,35.44z"/>
		<path class="st0" d="M155.62,71.84c0.26-0.2,0.61-0.03,1.02,0.52c0.41,0.55,0.5,0.96,0.26,1.22c-1.43,1.66-3.58,3.15-6.44,4.46
			c-2.86,1.31-4.96,1.25-6.32-0.15c-0.73-0.73-0.52-1.98,0.58-3.76c-1.11,1.52-2.88,2.97-5.3,4.4c-2.42,1.43-4.14,1.54-5.13,0.38
			c-1.37-1.75-1.4-3.79-0.12-6.15c1.28-2.36,2.97-3.7,5.04-4.05c0.26-0.03,0.61,0.26,1.02,0.9c0.41,0.64,0.5,1.08,0.26,1.31
			c-2.3,2.19-3.85,4.14-4.63,5.86c0.32,0.38,1.28,0.03,2.91-1.02c1.63-1.05,3.47-2.39,5.51-4.02c2.04-1.63,3.29-2.59,3.73-2.89
			c0.15-0.12,0.38-0.03,0.7,0.26c0.32,0.29,0.55,0.64,0.7,1.05s0.15,0.67,0,0.82c-0.79,0.67-1.52,1.6-2.21,2.8
			c-0.7,1.19-1.05,2.13-1.05,2.83c0.35-0.09,0.7-0.17,1.02-0.29c0.32-0.12,0.67-0.26,1.05-0.41c0.38-0.15,0.7-0.29,0.96-0.41
			c0.26-0.12,0.61-0.29,1.05-0.53c0.44-0.23,0.76-0.41,0.96-0.5c0.2-0.09,0.55-0.29,1.05-0.61c0.5-0.32,0.84-0.52,1.02-0.61
			c0.18-0.09,0.58-0.35,1.2-0.76c0.61-0.41,0.99-0.67,1.14-0.79L155.62,71.84z"/>
		<path class="st0" d="M173.75,71.76c0.2-0.12,0.47-0.09,0.82,0.12c0.35,0.2,0.61,0.47,0.82,0.79s0.2,0.55,0,0.7
			c-0.44,0.32-2.3,1.66-5.6,4.02c-3.29,2.36-5.36,4.08-6.24,5.16c-1.89,5.45-4.9,11.92-9.01,19.41c-4.25,7.78-7.11,11.57-8.54,11.34
			c-0.38-0.09-0.64-0.55-0.79-1.4c-0.38-2.86,0.99-7.69,4.14-14.49c3.15-6.79,7.02-12.47,11.6-17.02c0.12-0.38,0.44-1.31,0.96-2.8
			c0.53-1.49,0.82-2.39,0.9-2.71c-0.96,0.87-1.78,1.52-2.45,1.92c-0.67,0.41-1.37,0.58-2.13,0.55s-1.49-0.41-2.21-1.17
			c-0.9-1.22-1.2-2.54-0.87-3.93c0.32-1.4,0.99-2.56,2.01-3.53c2.54-2.36,5.25-2.68,8.13-0.96c0.76-0.67,1.49-1.19,2.21-1.57
			c0.35-0.2,0.88,0.09,1.54,0.87c0.67,0.79,0.87,1.31,0.61,1.57c-0.76,0.79-1.66,2.22-2.71,4.26c-1.05,2.04-1.78,3.7-2.21,5.01
			c1.31-0.99,3-2.19,5.07-3.56c2.07-1.37,3.41-2.24,4.02-2.62L173.75,71.76z M147.34,108.25c-0.03,0.15,0,0.17,0.09,0.06
			c0.87-0.79,2.62-3.64,5.25-8.54c2.13-3.99,4.08-8.07,5.86-12.24c-2.65,3.58-4.98,7.4-7.02,11.45s-3.41,7.14-4.14,9.27H147.34z
			 M158.01,74.44c0.53-0.32,1.08-0.73,1.66-1.22c0.58-0.5,1.05-0.93,1.4-1.31s0.84-0.87,1.46-1.52s1.05-1.11,1.31-1.4
			c-0.99,0-1.98,0.29-2.94,0.84s-1.72,1.22-2.27,2.01c-0.73,0.99-1.17,1.95-1.31,2.92c0.32-0.15,0.55-0.29,0.7-0.41V74.44z"/>
	</g>
	<g>
		<g>
			<path class="st1" d="M42.69,93.13h3.53c0.52,0,0.98,0.07,1.39,0.22c0.41,0.14,0.75,0.35,1.04,0.61s0.5,0.58,0.65,0.95
				s0.23,0.77,0.23,1.22v0.02c0,0.5-0.09,0.94-0.27,1.32c-0.18,0.38-0.43,0.7-0.75,0.95c-0.32,0.26-0.69,0.45-1.11,0.57
				c-0.42,0.13-0.88,0.19-1.37,0.19h-1.45v2.59h-1.9V93.13z M46.1,97.49c0.48,0,0.85-0.13,1.11-0.38c0.26-0.25,0.4-0.56,0.4-0.93
				v-0.03c0-0.43-0.14-0.75-0.41-0.97c-0.28-0.22-0.65-0.33-1.13-0.33h-1.47v2.63H46.1z"/>
			<path class="st1" d="M66.75,101.92c-0.67,0-1.28-0.12-1.84-0.35c-0.56-0.23-1.04-0.55-1.45-0.95s-0.73-0.87-0.95-1.41
				c-0.23-0.54-0.34-1.12-0.34-1.74v-0.03c0-0.62,0.12-1.2,0.35-1.74s0.55-1.01,0.96-1.42c0.41-0.41,0.89-0.73,1.46-0.96
				c0.56-0.23,1.18-0.35,1.85-0.35c0.67,0,1.28,0.12,1.84,0.35c0.56,0.24,1.04,0.55,1.45,0.95c0.41,0.4,0.72,0.87,0.95,1.41
				c0.23,0.54,0.34,1.12,0.34,1.74v0.02c0,0.62-0.12,1.2-0.35,1.74c-0.23,0.54-0.55,1.01-0.96,1.42c-0.41,0.41-0.89,0.73-1.46,0.96
				C68.04,101.81,67.42,101.92,66.75,101.92z M66.78,100.17c0.38,0,0.73-0.07,1.05-0.21c0.32-0.14,0.59-0.33,0.82-0.58
				s0.4-0.53,0.53-0.86c0.13-0.33,0.19-0.67,0.19-1.04v-0.03c0-0.37-0.06-0.72-0.19-1.05c-0.13-0.33-0.31-0.62-0.54-0.87
				s-0.51-0.44-0.83-0.59c-0.32-0.14-0.67-0.22-1.05-0.22c-0.39,0-0.74,0.07-1.06,0.21c-0.32,0.14-0.59,0.33-0.81,0.58
				c-0.23,0.25-0.4,0.53-0.53,0.86c-0.13,0.33-0.19,0.67-0.19,1.04v0.02c0,0.37,0.06,0.72,0.19,1.05c0.13,0.33,0.31,0.62,0.54,0.86
				s0.51,0.44,0.83,0.59C66.04,100.1,66.39,100.17,66.78,100.17z"/>
			<path class="st1" d="M84.67,93.13h3.37c0.67,0,1.29,0.11,1.86,0.33c0.56,0.22,1.05,0.52,1.46,0.91c0.41,0.39,0.72,0.84,0.94,1.37
				c0.22,0.52,0.33,1.09,0.33,1.7v0.02c0,0.61-0.11,1.18-0.33,1.71c-0.22,0.53-0.54,0.98-0.94,1.37c-0.41,0.39-0.89,0.69-1.46,0.91
				c-0.56,0.22-1.18,0.33-1.86,0.33h-3.37V93.13z M86.57,94.86v5.19h1.47c0.39,0,0.74-0.06,1.06-0.18c0.32-0.12,0.6-0.3,0.82-0.53
				s0.4-0.5,0.53-0.81c0.13-0.31,0.19-0.66,0.19-1.05v-0.02c0-0.38-0.06-0.73-0.19-1.04c-0.13-0.32-0.3-0.59-0.53-0.82
				s-0.5-0.41-0.82-0.54c-0.32-0.13-0.68-0.19-1.06-0.19H86.57z"/>
			<path class="st1" d="M109.99,101.92c-0.63,0-1.22-0.12-1.77-0.35s-1.01-0.55-1.41-0.95c-0.4-0.4-0.7-0.87-0.93-1.42
				c-0.22-0.54-0.33-1.12-0.33-1.74v-0.03c0-0.62,0.11-1.2,0.33-1.74c0.22-0.54,0.53-1.01,0.93-1.42c0.4-0.41,0.87-0.73,1.42-0.96
				c0.55-0.23,1.16-0.35,1.83-0.35c0.4,0,0.77,0.03,1.11,0.1c0.33,0.07,0.64,0.16,0.91,0.27s0.52,0.26,0.75,0.42
				c0.23,0.17,0.44,0.35,0.64,0.54l-1.21,1.4c-0.34-0.3-0.68-0.54-1.03-0.72s-0.74-0.26-1.18-0.26c-0.36,0-0.7,0.07-1.01,0.21
				c-0.31,0.14-0.57,0.33-0.8,0.58c-0.22,0.25-0.4,0.53-0.52,0.86s-0.19,0.67-0.19,1.04v0.02c0,0.37,0.06,0.72,0.19,1.05
				c0.12,0.33,0.29,0.62,0.51,0.86s0.48,0.44,0.79,0.59c0.31,0.14,0.65,0.22,1.02,0.22c0.49,0,0.91-0.09,1.25-0.27
				c0.34-0.18,0.68-0.43,1.02-0.74l1.21,1.22c-0.22,0.24-0.45,0.45-0.69,0.64c-0.24,0.19-0.5,0.35-0.78,0.49s-0.6,0.24-0.93,0.31
				C110.79,101.89,110.41,101.92,109.99,101.92z"/>
			<path class="st1" d="M129.64,93.06h1.75l3.71,8.71h-1.99l-0.79-1.94h-3.66l-0.79,1.94h-1.94L129.64,93.06z M131.64,98.15
				l-1.15-2.8l-1.15,2.8H131.64z"/>
			<path class="st1" d="M151.12,101.9c-0.66,0-1.31-0.11-1.94-0.34c-0.63-0.23-1.21-0.58-1.73-1.04l1.13-1.35
				c0.39,0.32,0.8,0.58,1.22,0.77c0.42,0.19,0.87,0.28,1.37,0.28c0.39,0,0.7-0.07,0.92-0.22c0.22-0.14,0.33-0.34,0.33-0.6v-0.02
				c0-0.12-0.02-0.23-0.07-0.33c-0.05-0.09-0.13-0.18-0.26-0.27c-0.13-0.08-0.3-0.17-0.53-0.25c-0.23-0.08-0.52-0.17-0.88-0.26
				c-0.44-0.11-0.83-0.23-1.19-0.36s-0.65-0.29-0.9-0.49c-0.25-0.19-0.44-0.43-0.58-0.72c-0.14-0.29-0.2-0.65-0.2-1.07v-0.03
				c0-0.39,0.07-0.75,0.22-1.07c0.15-0.32,0.35-0.59,0.62-0.82c0.27-0.23,0.58-0.41,0.95-0.53c0.37-0.12,0.78-0.19,1.22-0.19
				c0.63,0,1.22,0.09,1.75,0.28s1.02,0.46,1.46,0.82l-0.99,1.43c-0.39-0.26-0.77-0.47-1.14-0.62c-0.37-0.15-0.74-0.23-1.11-0.23
				c-0.37,0-0.65,0.07-0.83,0.22s-0.28,0.32-0.28,0.54v0.03c0,0.14,0.03,0.26,0.08,0.36c0.05,0.1,0.15,0.2,0.29,0.28
				c0.14,0.08,0.33,0.16,0.57,0.24s0.55,0.16,0.92,0.26c0.44,0.12,0.83,0.25,1.17,0.39s0.63,0.32,0.87,0.52
				c0.23,0.2,0.41,0.44,0.53,0.71c0.12,0.27,0.18,0.6,0.18,0.98v0.02c0,0.43-0.08,0.81-0.23,1.14c-0.16,0.33-0.37,0.61-0.65,0.84
				s-0.61,0.4-1,0.52S151.59,101.9,151.12,101.9z"/>
			<path class="st1" d="M169.39,94.88h-2.63v-1.75h7.17v1.75h-2.63v6.89h-1.9V94.88z"/>
		</g>
	</g>
	<g>
		<path class="st1" d="M191.92,63.11v-6.23c0-2.11,1.71-3.82,3.82-3.82v-3.91c-4.26,0-7.73,3.47-7.73,7.74v6.23
			c0,2.11-1.71,3.82-3.82,3.82v3.91c2.11,0,3.82,1.71,3.82,3.82v6.23c0,4.27,3.47,7.74,7.73,7.74v-3.91c-2.11,0-3.82-1.71-3.82-3.82
			v-6.23c0-2.3-1.01-4.36-2.61-5.78C190.91,67.47,191.92,65.41,191.92,63.11z"/>
		<path class="st1" d="M256.31,63.11v-6.23c0-4.27-3.47-7.74-7.74-7.74v3.91c2.11,0,3.82,1.71,3.82,3.82v6.23
			c0,2.3,1.01,4.36,2.61,5.78c-1.6,1.42-2.61,3.48-2.61,5.78v6.23c0,2.11-1.71,3.82-3.82,3.82v3.91c4.27,0,7.74-3.47,7.74-7.74
			v-6.23c0-2.11,1.71-3.82,3.82-3.82v-3.91C258.03,66.93,256.31,65.22,256.31,63.11z"/>
		<g>
			<g>
				<g>
					<circle class="st1" cx="222.3" cy="68.47" r="14.29"/>
				</g>
			</g>
			<g>
				<g>
					<circle class="st1" cx="222.25" cy="54.63" r="5.79"/>
				</g>
			</g>
			<g>
				<g>
					<g>
						<line class="st1" x1="220.5" y1="49.93" x2="217" y2="46.43"/>
					</g>
					<g>
						<path class="st1" d="M220.5,50.36c-0.11,0-0.22-0.04-0.31-0.13l-3.5-3.5c-0.17-0.17-0.17-0.44,0-0.61
							c0.17-0.17,0.44-0.17,0.61,0l3.5,3.5c0.17,0.17,0.17,0.44,0,0.61C220.72,50.32,220.61,50.36,220.5,50.36z"/>
					</g>
				</g>
				<g>
					<g>
						<line class="st1" x1="223.99" y1="49.93" x2="227.49" y2="46.43"/>
					</g>
					<g>
						<path class="st1" d="M223.99,50.36c-0.11,0-0.22-0.04-0.31-0.13c-0.17-0.17-0.17-0.44,0-0.61l3.5-3.5
							c0.17-0.17,0.44-0.17,0.61,0c0.17,0.17,0.17,0.44,0,0.61l-3.5,3.5C224.21,50.32,224.1,50.36,223.99,50.36z"/>
					</g>
				</g>
			</g>
			<g>
				<g>
					<g>
						<path class="st0" d="M209.39,87.15c-9.36-3.57-14.06-14.05-10.5-23.41s14.05-14.06,23.41-10.5L209.39,87.15z"/>
					</g>
				</g>
				<g>
					<g>
						<path class="st0" d="M235.21,87.15c9.36-3.57,14.06-14.05,10.5-23.41c-3.57-9.36-14.05-14.06-23.41-10.5L235.21,87.15z"/>
					</g>
				</g>
			</g>
			<g>
				<g>
					<circle class="st1" cx="202.46" cy="71.98" r="2.38"/>
				</g>
				<g>
					<path class="st1" d="M202.46,74.8c-1.55,0-2.82-1.26-2.82-2.82s1.26-2.82,2.82-2.82s2.82,1.26,2.82,2.82
						S204.01,74.8,202.46,74.8z M202.46,70.03c-1.08,0-1.95,0.87-1.95,1.95s0.87,1.95,1.95,1.95c1.08,0,1.95-0.87,1.95-1.95
						S203.54,70.03,202.46,70.03z"/>
				</g>
			</g>
			<g>
				<g>
					<circle class="st1" cx="207.16" cy="79.29" r="1.45"/>
				</g>
				<g>
					<path class="st1" d="M207.16,81.17c-1.04,0-1.88-0.84-1.88-1.88c0-1.04,0.84-1.88,1.88-1.88c1.04,0,1.88,0.84,1.88,1.88
						C209.04,80.32,208.2,81.17,207.16,81.17z M207.16,78.27c-0.56,0-1.01,0.46-1.01,1.01c0,0.56,0.45,1.01,1.01,1.01
						s1.01-0.46,1.01-1.01C208.18,78.73,207.72,78.27,207.16,78.27z"/>
				</g>
			</g>
			<g>
				<g>
					<circle class="st1" cx="210.27" cy="66.34" r="3.63"/>
				</g>
				<g>
					<path class="st1" d="M210.27,70.4c-2.24,0-4.06-1.82-4.06-4.06c0-2.24,1.82-4.06,4.06-4.06c2.24,0,4.06,1.82,4.06,4.06
						C214.33,68.58,212.51,70.4,210.27,70.4z M210.27,63.14c-1.76,0-3.2,1.43-3.2,3.19c0,1.76,1.43,3.2,3.2,3.2
						c1.76,0,3.19-1.43,3.19-3.2C213.46,64.58,212.03,63.14,210.27,63.14z"/>
				</g>
			</g>
			<g>
				<g>
					<circle class="st1" cx="242.04" cy="71.98" r="2.38"/>
				</g>
				<g>
					<path class="st1" d="M242.04,74.8c-1.55,0-2.82-1.26-2.82-2.82s1.26-2.82,2.82-2.82c1.55,0,2.82,1.26,2.82,2.82
						S243.6,74.8,242.04,74.8z M242.04,70.03c-1.08,0-1.95,0.87-1.95,1.95s0.87,1.95,1.95,1.95c1.08,0,1.95-0.87,1.95-1.95
						S243.12,70.03,242.04,70.03z"/>
				</g>
			</g>
			<g>
				<g>
					<circle class="st1" cx="237.34" cy="79.29" r="1.45"/>
				</g>
				<g>
					<path class="st1" d="M237.34,81.17c-1.04,0-1.88-0.84-1.88-1.88c0-1.04,0.84-1.88,1.88-1.88c1.04,0,1.88,0.84,1.88,1.88
						C239.22,80.32,238.38,81.17,237.34,81.17z M237.34,78.27c-0.56,0-1.01,0.46-1.01,1.01c0,0.56,0.45,1.01,1.01,1.01
						c0.56,0,1.01-0.46,1.01-1.01C238.36,78.73,237.9,78.27,237.34,78.27z"/>
				</g>
			</g>
			<g>
				<g>
					<circle class="st1" cx="234.24" cy="66.34" r="3.63"/>
				</g>
				<g>
					<path class="st1" d="M234.24,70.4c-2.24,0-4.06-1.82-4.06-4.06c0-2.24,1.82-4.06,4.06-4.06c2.24,0,4.06,1.82,4.06,4.06
						C238.3,68.58,236.48,70.4,234.24,70.4z M234.24,63.14c-1.76,0-3.19,1.43-3.19,3.19c0,1.76,1.43,3.2,3.19,3.2
						c1.76,0,3.2-1.43,3.2-3.2C237.43,64.58,236,63.14,234.24,63.14z"/>
				</g>
			</g>
		</g>
	</g>
</g>
</svg>
