<?xml version="1.0" encoding="UTF-8"?>
<svg width="254px" height="177px" viewBox="0 0 254 177" version="1.1" xmlns="http://www.w3.org/2000/svg" xmlns:xlink="http://www.w3.org/1999/xlink">
    <!-- Generator: Sketch 62 (91390) - https://sketch.com -->
    <title>Shape</title>
    <desc>Created with Sketch.</desc>
    <g id="Page-1" stroke="none" stroke-width="1" fill="none" fill-rule="evenodd">
        <g id="Desktop-HD" transform="translate(-359.000000, -1804.000000)" fill="#000000" fill-rule="nonzero">
            <path d="M435.214182,1879.84907 L600.292909,1879.84907 C607.298827,1879.84907 613,1885.49681 613,1892.5 C613,1899.47495 607.327192,1905.15093 600.292909,1905.15093 L435.214182,1905.15093 C428.208264,1905.15093 422.507091,1899.50319 422.507091,1892.5 C422.507091,1885.52505 428.179899,1879.84907 435.214182,1879.84907 L435.214182,1879.84907 Z M371.707091,1879.84907 L384.414182,1879.84907 C391.420101,1879.84907 397.121273,1885.49681 397.121273,1892.5 C397.121273,1899.47495 391.448465,1905.15093 384.414182,1905.15093 L371.707091,1905.15093 C364.701173,1905.15093 359,1899.50319 359,1892.5 C359.028364,1885.52505 364.701173,1879.84907 371.707091,1879.84907 L371.707091,1879.84907 Z M371.707091,1955.69815 L600.264545,1955.69815 C607.270463,1955.69815 612.971636,1961.34588 612.971636,1968.34907 C612.971636,1975.32403 607.298827,1981 600.264545,1981 L371.707091,1981 C364.701173,1981 359.028364,1975.32403 359.028364,1968.34907 C359.028364,1961.37412 364.701173,1955.69815 371.707091,1955.69815 Z M371.707091,1804 L600.264545,1804 C607.270463,1804 612.971636,1809.64773 612.971636,1816.65093 C612.971636,1823.62588 607.298827,1829.30185 600.264545,1829.30185 L371.707091,1829.30185 C364.701173,1829.30185 359,1823.65412 359,1816.65093 C359.028364,1809.67597 364.701173,1804 371.707091,1804 Z" id="Shape"></path>
        </g>
    </g>
</svg>