<svg viewBox="0 0 49 48" xmlns="http://www.w3.org/2000/svg"><path id="layer-1" class="line-1 layer-line" d="M25.29,46.73c-.6,0-1.21,0-1.82-.07a23.45,23.45,0,0,1-13.19-5.25,23.6,23.6,0,0,1-7.08-26A23.63,23.63,0,0,1,25.17,0h0a24.66,24.66,0,0,1,3.68.3A23.6,23.6,0,0,1,48.08,18.65,23.67,23.67,0,0,1,37.3,43.39,23,23,0,0,1,25.29,46.73ZM25.17,1.56A22.05,22.05,0,0,0,4.67,15.91,21.75,21.75,0,0,0,23.59,45.1a21.48,21.48,0,0,0,12.89-3.05,21.7,21.7,0,0,0,8.65-10A21.89,21.89,0,0,0,46.55,19,22,22,0,0,0,28.62,1.84,24.17,24.17,0,0,0,25.17,1.56Z" style="fill:#d92585"></path><path id="layer-2" class="line-2 layer-line" d="M23.6,47c-.61,0-1.22,0-1.83-.07A23.61,23.61,0,0,1,8.51,41.69,23.7,23.7,0,0,1,1.4,15.52,23.75,23.75,0,0,1,23.48.07h0a26.36,26.36,0,0,1,3.71.3A23.73,23.73,0,0,1,46.5,18.82,23.57,23.57,0,0,1,45,32.94a23.32,23.32,0,0,1-9.32,10.73A23.09,23.09,0,0,1,23.6,47ZM23.48,1.49A22.32,22.32,0,0,0,2.73,16,22,22,0,0,0,21.88,45.55a21.81,21.81,0,0,0,13.05-3.09A22.32,22.32,0,0,0,45.11,19.1,22.29,22.29,0,0,0,27,1.77,24.72,24.72,0,0,0,23.48,1.49Z" style="fill:#75f272"></path><path id="layer-3" class="line-3 layer-line" d="M24.44,47.17c-.61,0-1.22,0-1.83-.07A23.55,23.55,0,0,1,9.34,41.82a23.71,23.71,0,0,1-7.12-26.2A23.77,23.77,0,0,1,24.31.16h0A26.36,26.36,0,0,1,28,.46,23.75,23.75,0,0,1,47.36,18.93,23.75,23.75,0,0,1,36.51,43.81,23.12,23.12,0,0,1,24.44,47.17ZM24.32,2A21.92,21.92,0,0,0,4,16.26a21.61,21.61,0,0,0,18.8,29A21.4,21.4,0,0,0,44.14,32.33a21.64,21.64,0,0,0,1.41-13,21.87,21.87,0,0,0-17.8-17A24,24,0,0,0,24.32,2Z" style="fill:#2d2d2d"></path><path id="heart" d="M25.812 12.757c2.757-2.36 5.487-3.347 7.156-2.4 1.742.987 2.251 3.985 1.472 7.708a18.88 18.88 0 01-.16.691c.346.098.69.204 1.03.32 3.457 1.17 5.69 3.002 5.69 4.897 0 1.977-2.387 3.91-6.055 5.105-.194.063-.393.124-.595.182.072.286.136.567.192.842.724 3.597.166 6.554-1.55 7.532-1.662.946-4.348.016-7.068-2.285-.296-.251-.584-.51-.865-.777-.223.213-.446.415-.668.606-2.807 2.413-5.69 3.415-7.409 2.44-1.663-.943-2.186-3.696-1.517-7.162.074-.377.157-.752.252-1.124-.29-.081-.58-.17-.866-.266C11.323 27.88 9 25.924 9 23.973c0-1.888 2.164-3.709 5.552-4.87.378-.13.774-.252 1.184-.366a20.72 20.72 0 01-.237-1.043c-.702-3.528-.208-6.347 1.46-7.297 1.74-.99 4.636.074 7.526 2.597.18.157.356.318.53.482.26-.247.525-.486.797-.72zm7.642 16.996c-1.313.31-2.761.536-4.294.675a32.36 32.36 0 01-2.658 3.44c.267.261.533.509.797.74 2.305 2.022 4.442 2.788 5.441 2.199.47-.277.85-.97 1.038-2.007.21-1.154.165-2.632-.152-4.265-.05-.255-.107-.516-.172-.782zm-15.84.062a20.14 20.14 0 00-.231 1.073c-.567 3.044-.151 5.314.849 5.902.47.276 1.247.266 2.224-.085 1.086-.391 2.32-1.169 3.55-2.265.205-.184.407-.373.604-.567a33.484 33.484 0 01-2.722-3.428 31.29 31.29 0 01-4.273-.63zm9.8.73c-.629.029-1.268.044-1.914.044-.63 0-1.248-.013-1.855-.037.625.84 1.266 1.621 1.908 2.327a29.26 29.26 0 001.861-2.334zM25.5 18.795c-.977 0-1.944.038-2.887.111a38.92 38.92 0 00-1.538 2.495l-.355.641c-.35.645-.68 1.3-.993 1.964a39.072 39.072 0 002.902 5.11c.924.06 1.884.092 2.871.092.99 0 1.963-.035 2.904-.104a45.422 45.422 0 001.521-2.501 41.8 41.8 0 001.363-2.616 45.551 45.551 0 00-1.367-2.594c-.48-.847-.99-1.676-1.528-2.486a37.413 37.413 0 00-2.893-.112zm-6.492 6.835a31.345 31.345 0 00-1.028 2.853c.905.2 1.884.36 2.923.479a40.956 40.956 0 01-1.895-3.332zm13.01-.05c-.294.578-.6 1.149-.92 1.712a48.474 48.474 0 01-.973 1.645c1.046-.128 2.038-.3 2.958-.514a29.674 29.674 0 00-1.065-2.843zm-15.334-5.655c-.367.106-.731.222-1.091.35C12.72 21.295 11 22.796 11 23.973c0 .553.397 1.235 1.184 1.921.875.764 2.152 1.464 3.698 2.003.259.09.52.173.783.25.4-1.331.928-2.729 1.564-4.14a33.505 33.505 0 01-1.545-4.082zm17.65.02a32.771 32.771 0 01-1.544 4.035 32.775 32.775 0 011.606 4.094c.181-.055.359-.111.532-.17C38.067 26.844 40 25.222 40 23.973c0-1.173-1.79-2.695-4.724-3.725a19.67 19.67 0 00-.943-.303zm-4.205-.86c.332.532.654 1.07.964 1.617.315.554.62 1.115.912 1.681.401-.957.742-1.89 1.015-2.783-.91-.211-1.88-.385-2.891-.515zm-9.255-.002c-1.006.128-1.97.296-2.875.503a30.85 30.85 0 001.008 2.796 41.05 41.05 0 011.867-3.3zm11.845-7.898c-.997-.586-3.184.233-5.525 2.31-.249.221-.492.448-.73.682a32.334 32.334 0 012.68 3.41c1.496.142 2.925.373 4.24.682.052-.213.1-.427.143-.642.667-3.301.254-5.818-.808-6.442zm-8.63 2.545c-2.472-2.238-4.817-3.13-5.878-2.504-.996.587-1.392 2.929-.796 6.033.065.334.137.666.218.996a32.52 32.52 0 014.231-.67 32.977 32.977 0 012.702-3.408 17.843 17.843 0 00-.476-.447zm1.426 1.434a30.32 30.32 0 00-1.882 2.295c1.249-.06 2.5-.059 3.748.001a29.41 29.41 0 00-1.866-2.296z" fill="#53C1DE"></path><path id="heart" d="M28 24a3 3 0 11-6 0 3 3 0 016 0z" fill="#53C1DE"></path></svg>