<svg viewBox="0 0 515 238" xmlns="http://www.w3.org/2000/svg" class="css-o8u0d7"><title>React Boston</title><g fill="none"><path d="M20.736 111.155c1.145-5.892 2.366-11.772 3.428-17.677a15855.08 15855.08 0 0 0 9.15-51.51c1.999-11.325 3.985-22.652 5.959-33.98.084-.246.189-.483.313-.71h8.23c12.986.173 25.98.237 38.96.64 3.638.173 7.236.838 10.697 1.974 5.41 1.694 7.705 5.58 6.803 11.126-1.848 11.338-3.881 22.688-5.8 33.993-.294 1.7-.581 3.4-.895 5.113-1.816 9.88-6.323 14.239-16.311 15.798l-2.238.352 9.438 35.245H69.447c-2.334-8.647-4.68-17.402-7.034-26.151-.722-2.659-.754-6.308-2.519-7.67-1.765-1.36-5.32-.498-8.088-.562-1.919-.044-3.837 0-6.107 0l-6.062 34.62h-18.9v-.601zM85.28 23.939c-9.847 0-19.272-.038-28.684.083-.601 0-1.573 1.176-1.72 1.917-1.28 6.391-2.366 12.814-3.485 19.23-.87 4.979-1.695 9.964-2.558 15.172h30.053l6.394-36.402zM301.472 112.887c-4.476-.384-8.952-.703-13.428-1.182-2.001-.22-3.98-.611-5.914-1.17-7.328-2.103-9.969-6.333-8.677-13.817a8036.117 8036.117 0 0 1 6.087-34.83c2.257-12.737 4.687-25.442 6.816-38.198 1.458-8.736 6.299-13.996 14.982-15.51a120.956 120.956 0 0 1 42.157-.141c8.478 1.502 10.94 5.163 10.537 13.612a16.467 16.467 0 0 1-.198 2.007c-1.068 6.218-2.155 12.436-3.248 18.725h-18.722l3.197-19.287h-30.053l-12.833 72.81h30.053l3.587-19.294h18.639l-2.807 15.926c-.147.85-.275 1.707-.46 2.557-2.424 10.986-7.776 15.46-19.97 16.616-4.476.435-8.952.78-13.427 1.17l-6.318.006zM434.912 7.809c-.976 5.044-1.955 10.086-2.935 15.127-.096.342-.211.68-.345 1.01h-24.266L391.879 111.5h-18.715l15.448-87.484h-24.375c.947-5.516 1.778-10.673 2.814-15.786.096-.46 1.522-.92 2.334-.926 7.986-.07 15.985-.039 23.959-.045h41.562l.006.55zM253.79 7.278l6.14 104.305h-18.358l-1.318-21.933h-31.683c-2.666 6.525-5.48 13.222-8.127 19.984-.64 1.578-1.349 2.186-3.082 2.147-5.754-.115-11.51-.044-17.711-.044 1.668-4.123 3.197-8.002 4.802-11.862 12.413-30.092 24.811-60.182 37.194-90.27.736-1.79 1.516-2.423 3.472-2.398 9.425.116 18.85.071 28.672.071zm-14.565 65.57l-2.941-48.57-.755-.09-19.969 48.654 23.665.006zM125.971 7.368h61.384l-2.826 16.571h-2.999c-12.321 0-24.643.038-36.958-.038-2.033 0-2.941.332-3.306 2.684-1.247 8.123-2.864 16.188-4.386 24.534h41.095c-.703 4.282-1.279 8.308-2.04 12.27-.818 4.474-.87 4.442-5.537 4.442h-36.447l-4.782 27.136h42.777l-2.91 16.571h-61.435l18.37-104.17zM2.192 232.597c1.398-7.328 2.898-14.643 4.181-21.99 3.614-20.697 12.712-74.316 13.536-78.72.377-2.018 2.841-1.94 4.641-1.999 13.772-.44 37.427-.944 52.827 2.497 5.337 1.19 7.661 5.472 6.902 10.879-1.022 7.308-2.107 14.617-3.506 21.86-2.107 10.867-6.225 15.11-17.385 16.753-.575.084-1.826.504-2.247.601.855.214 1.704.492 2.554.647 9.353 1.52 12.545 5.821 11.07 15.277-1.085 6.94-2.368 13.841-3.505 20.768-1.423 8.706-7.023 13.233-15.042 13.99-10.707 1.01-21.49 1.216-32.242 1.546-3.76.116-19.792.071-20.788.071-.85-.006-1.073-1.779-.996-2.18zm63.31-85.899H35.876l-4.782 27.165c9.577 0 18.917.039 28.264-.084.639 0 1.705-1.158 1.84-1.94 1.5-8.24 2.86-16.565 4.302-25.134v-.007zm-41.948 71.496c8.939 0 17.699-.09 26.465.058 2.515.045 3.626-.647 3.696-3.305.051-1.876.684-3.732 1.01-5.601a3734.637 3734.637 0 0 0 3.128-18.156 5.022 5.022 0 0 0-1.277-.478c-8.786-.04-17.564-.11-26.343.032-.862 0-2.286 1.294-2.452 2.193-1.52 8.304-2.796 16.641-4.227 25.257zM409.485 234.622c4.93-28.206 9.794-55.992 14.64-83.778 1.04-5.983 1.916-11.991 3.084-17.948.21-1.068 1.424-2.743 2.196-2.756 9.481-.194 18.963-.123 28.814-.123l10.656 87.588.753.052 15.177-87.49h18.387l-18.03 104.326h-30.57l-10.687-87.355-.747-.11-15.202 87.594h-18.47zM100.234 234.202c-10.58-1.94-13.159-5.505-11.39-16.345 3.83-23.607 8.261-47.118 12.13-70.713 1.654-9.999 7.196-15.477 16.792-16.77 13.522-1.825 27.09-2.258 40.542.465 7.662 1.552 10.656 6.08 9.354 13.99-3.365 20.432-6.896 40.831-10.363 61.244-.561 3.286-1.194 6.558-1.73 9.844-2.088 12.664-7.15 17.586-19.652 18.757-5.586.55-29.497.646-35.683-.472zm36.392-15.349l12.629-72.976h-29.638l-12.635 72.976h29.644zM396.627 130.858c7.968 1.443 10.854 5.905 9.52 14.12-3.314 20.315-6.832 40.605-10.267 60.9-.639 3.636-1.277 7.27-1.877 10.906-1.846 10.943-5.804 15.335-16.632 17.295a110.945 110.945 0 0 1-38.455.18c-10.783-1.83-13.408-5.652-11.569-16.563a4077.897 4077.897 0 0 1 12.45-71.024c2.082-11.24 7.08-15.464 18.382-16.596 5.829-.582 31.565-.46 38.448.782zM375.13 218.88l12.616-72.95h-29.65l-12.604 72.95h29.638zM194.1 199.36l-3.352 19.403h29.606l4.105-23.013c-4.386-1.61-8.728-3.234-13.076-4.792-9.89-3.584-19.792-7.2-29.694-10.685-1.763-.647-2.471-1.423-2.126-3.331 1.845-10.278 3.76-20.581 5.465-30.93 1.475-8.919 6.576-13.905 15.202-15.328 13.854-2.29 27.74-2.587 41.557.103 8.006 1.559 10.758 5.925 9.628 14.107a460.12 460.12 0 0 1-1.551 10.238c-.524 3.266-1.111 6.526-1.686 9.89h-18.337l3.084-19.1h-29.573l-4.067 22.948 45.452 16.441c-2.21 12.127-4.214 23.97-6.57 35.735-1.481 7.406-6.678 11.37-13.618 12.716a112.838 112.838 0 0 1-40.536.472c-10.797-1.83-13.255-5.97-11.493-17.01.837-5.175 1.711-10.35 2.79-15.459.192-.918 1.443-2.263 2.248-2.296 5.408-.213 10.783-.11 16.542-.11zM271.086 234.732l15.246-88.118h-24.006c.926-5.394 1.724-10.38 2.72-15.329.115-.556 1.347-1.248 2.069-1.255 21.305-.064 42.61-.051 64.484-.051-.862 5.284-1.583 10.27-2.598 15.2-.128.646-1.794 1.293-2.758 1.293-7.023.11-14.046.058-21.414.058-1.469 8.37-2.93 16.635-4.361 24.908-3.53 20.386-7.023 40.747-10.643 61.147-.147.821-1.309 2.043-2.037 2.063-5.503.161-10.975.084-16.702.084z" stroke="#6BC7EE" stroke-width="3"></path><path d="M31.74 105.205c1.145-5.895 2.367-11.777 3.429-17.685 3.078-17.17 6.129-34.348 9.152-51.535 2-11.33 3.986-22.662 5.96-33.996.084-.246.189-.483.314-.71h8.23c12.99.172 25.986.236 38.97.64 3.638.173 7.238.838 10.699 1.975 5.41 1.694 7.707 5.582 6.805 11.132-1.849 11.342-3.882 22.698-5.801 34.009-.294 1.7-.582 3.401-.895 5.115-1.817 9.885-6.326 14.246-16.316 15.806l-2.238.351 9.44 35.263H80.462c-2.334-8.651-4.682-17.41-7.035-26.164-.723-2.66-.755-6.311-2.52-7.673-1.765-1.362-5.321-.499-8.09-.563-1.919-.044-3.838 0-6.108 0l-6.063 34.636H31.74v-.6zm64.558-87.257c-9.85 0-19.277-.039-28.691.083-.601 0-1.573 1.176-1.72 1.918-1.28 6.394-2.367 12.82-3.486 19.24-.87 4.98-1.695 9.967-2.558 15.178h30.059l6.396-36.42zM312.539 106.938c-4.477-.384-8.954-.703-13.431-1.183a35.107 35.107 0 0 1-5.916-1.17c-7.33-2.104-9.97-6.336-8.679-13.824a8041.882 8041.882 0 0 1 6.089-34.846c2.257-12.743 4.688-25.454 6.818-38.217 1.458-8.74 6.3-14.002 14.984-15.518a120.953 120.953 0 0 1 42.167-.14c8.48 1.502 10.942 5.166 10.54 13.619a16.48 16.48 0 0 1-.199 2.007c-1.068 6.222-2.155 12.443-3.249 18.734h-18.726l3.198-19.296h-30.06L303.24 89.949h30.059l3.588-19.303h18.643l-2.808 15.934c-.147.85-.275 1.707-.46 2.557-2.424 10.991-7.777 15.467-19.974 16.624-4.477.435-8.954.78-13.43 1.17l-6.32.007zM446.008 1.81c-.976 5.046-1.955 10.091-2.935 15.134-.097.343-.212.68-.346 1.01h-24.271l-15.49 87.596h-18.72l15.452-87.526h-24.38c.946-5.518 1.778-10.677 2.814-15.793.096-.46 1.522-.92 2.334-.927 7.988-.07 15.99-.038 23.965-.044H446l.007.55zM264.847 1.279l6.14 104.355h-18.362l-1.318-21.944h-31.69c-2.667 6.528-5.48 13.229-8.129 19.993-.64 1.58-1.349 2.187-3.082 2.149-5.756-.115-11.512-.045-17.716-.045 1.67-4.124 3.198-8.005 4.803-11.867a122444.43 122444.43 0 0 0 37.203-90.314c.736-1.79 1.516-2.423 3.473-2.398 9.427.116 18.854.07 28.678.07zm-14.57 65.601l-2.941-48.593-.755-.09-19.973 48.677 23.67.006zM136.999 1.368h61.398l-2.827 16.58h-3c-12.324 0-24.648.038-36.966-.039-2.034 0-2.942.333-3.307 2.686-1.247 8.126-2.865 16.195-4.387 24.546h41.104c-.703 4.284-1.279 8.312-2.04 12.276-.818 4.476-.87 4.444-5.538 4.444H144.98l-4.784 27.148h42.786l-2.91 16.58h-61.448l18.374-104.22z" fill="#F15959"></path><path d="M13.192 226.706c1.398-7.332 2.899-14.65 4.182-22.001 3.615-20.707 12.715-74.351 13.539-78.758.377-2.02 2.842-1.941 4.642-2 13.775-.44 37.435-.944 52.839 2.498 5.338 1.19 7.663 5.475 6.903 10.884-1.022 7.312-2.108 14.625-3.506 21.872-2.107 10.871-6.226 15.116-17.39 16.76-.574.084-1.826.504-2.247.601.856.214 1.705.492 2.554.648 9.356 1.52 12.549 5.823 11.074 15.284-1.086 6.943-2.37 13.848-3.506 20.778-1.424 8.71-7.025 13.24-15.046 13.997-10.71 1.01-21.495 1.216-32.25 1.546-3.76.117-19.796.071-20.792.071-.85-.006-1.073-1.78-.996-2.18zm63.324-85.94H46.884l-4.783 27.177c9.58 0 18.922.039 28.271-.084.639 0 1.705-1.158 1.84-1.941 1.5-8.244 2.86-16.572 4.304-25.146v-.007zm-41.957 71.529c8.94 0 17.702-.09 26.47.058 2.516.045 3.628-.647 3.698-3.306.051-1.877.683-3.734 1.009-5.604 1.056-6.04 2.099-12.094 3.129-18.164a5.022 5.022 0 0 0-1.277-.479c-8.787-.039-17.568-.11-26.349.032-.862 0-2.286 1.295-2.452 2.194-1.52 8.309-2.797 16.65-4.228 25.269zM420.576 228.731c4.93-28.22 9.796-56.019 14.643-83.818 1.041-5.985 1.916-11.997 3.085-17.957.21-1.067 1.424-2.743 2.196-2.756 9.484-.194 18.967-.123 28.82-.123l10.659 87.63.753.05 15.18-87.531h18.392L496.27 228.602h-30.577l-10.69-87.397-.747-.11-15.205 87.636h-18.475zM111.256 228.31c-10.582-1.94-13.162-5.506-11.393-16.352 3.831-23.618 8.263-47.14 12.133-70.746 1.654-10.004 7.197-15.485 16.796-16.78 13.525-1.824 27.096-2.258 40.55.467 7.664 1.553 10.66 6.082 9.356 13.996-3.365 20.442-6.896 40.851-10.364 61.273-.562 3.288-1.194 6.562-1.73 9.85-2.089 12.67-7.153 17.594-19.657 18.765-5.588.55-29.503.647-35.691-.472zm36.4-15.355l12.632-73.012h-29.644l-12.638 73.012h29.65zM407.714 124.918c7.97 1.443 10.857 5.908 9.522 14.126-3.314 20.325-6.833 40.625-10.269 60.93-.638 3.637-1.277 7.274-1.877 10.91-1.846 10.95-5.805 15.343-16.636 17.304a110.942 110.942 0 0 1-38.463.18c-10.786-1.83-13.41-5.655-11.571-16.571a4080.791 4080.791 0 0 1 12.452-71.058c2.082-11.246 7.082-15.472 18.386-16.604 5.83-.582 31.572-.46 38.456.783zm-21.501 88.063l12.618-72.986h-29.656l-12.606 72.986h29.644zM205.143 193.452l-3.353 19.412h29.612l4.107-23.023c-4.388-1.611-8.73-3.236-13.079-4.795-9.892-3.585-19.797-7.202-29.701-10.69-1.763-.647-2.472-1.424-2.127-3.333 1.846-10.282 3.761-20.59 5.466-30.944 1.476-8.923 6.578-13.912 15.206-15.336 13.857-2.29 27.747-2.588 41.566.104 8.008 1.56 10.76 5.927 9.63 14.113a460.456 460.456 0 0 1-1.551 10.243c-.524 3.268-1.112 6.53-1.686 9.894h-18.341l3.084-19.108h-29.58l-4.068 22.959 45.463 16.449c-2.21 12.133-4.215 23.981-6.572 35.752-1.481 7.409-6.68 11.376-13.621 12.721a112.835 112.835 0 0 1-40.545.473c-10.799-1.831-13.257-5.973-11.495-17.019.837-5.176 1.712-10.353 2.79-15.465.192-.92 1.444-2.265 2.249-2.297 5.409-.214 10.786-.11 16.546-.11zM282.146 228.841l15.25-88.16h-24.012c.926-5.397 1.724-10.386 2.72-15.336.116-.556 1.348-1.249 2.07-1.255 21.31-.065 42.62-.052 64.499-.052-.862 5.287-1.584 10.276-2.6 15.207-.127.647-1.794 1.294-2.758 1.294-7.025.11-14.05.058-21.419.058-1.469 8.373-2.931 16.643-4.362 24.92-3.531 20.396-7.024 40.766-10.645 61.176-.147.822-1.31 2.045-2.037 2.064-5.505.162-10.978.084-16.706.084z" fill="#002E6E"></path></g></svg>